mtllib block.mtl

o TwoCubes
v 0.0 0.0 0.0
v 1.0 0.0 0.0
v 1.0 0.0 1.0
v 0.0 0.0 1.0
v 0.0 1.0 0.0
v 1.0 1.0 0.0
v 1.0 1.0 1.0
v 0.0 1.0 1.0

v 1.0 0.0 0.0
v 2.0 0.0 0.0
v 2.0 0.0 1.0
v 1.0 0.0 1.0
v 1.0 1.0 0.0
v 2.0 1.0 0.0
v 2.0 1.0 1.0
v 1.0 1.0 1.0

v 1.0 0.0 1.0
v 2.0 0.0 1.0
v 2.0 0.0 2.0
v 1.0 0.0 2.0
v 1.0 1.0 1.0
v 2.0 1.0 1.0
v 2.0 1.0 2.0
v 1.0 1.0 2.0

vt 0.0 1.0
vt 1.0 1.0
vt 1.0 0.0
vt 0.0 0.0

vn 0.0 0.0 1.0
vn 0.0 0.0 -1.0
vn 1.0 0.0 0.0
vn -1.0 0.0 0.0
vn 0.0 1.0 0.0
vn 0.0 -1.0 0.0

f 4/1/1 3/2/1 7/3/1 8/4/1
f 2/2/2 1/1/2 5/4/2 6/3/2
f 3/1/3 2/2/3 6/3/3 7/4/3
f 1/2/4 4/1/4 8/4/4 5/3/4
f 5/1/5 8/2/5 7/3/5 6/4/5
f 1/1/6 2/2/6 3/3/6 4/4/6

f 12/1/1 11/2/1 15/3/1 16/4/1
f 10/2/2 9/1/2 13/4/2 14/3/2
f 11/1/3 10/2/3 14/3/3 15/4/3
f 9/2/4 12/1/4 16/4/4 13/3/4
f 13/1/5 16/2/5 15/3/5 14/4/5
f 9/1/6 10/2/6 11/3/6 12/4/6

f 20/1/1 19/2/1 23/3/1 24/4/1
f 18/2/2 17/1/2 21/4/2 22/3/2
f 19/1/3 18/2/3 22/3/3 23/4/3
f 17/2/4 20/1/4 24/4/4 21/3/4
f 21/1/5 24/2/5 23/3/5 22/4/5
f 17/1/6 18/2/6 19/3/6 20/4/6
